g M_Tear_R
v -0.005592941 0.00928385 -0.0006296947
v -0.009861945 0.00328324 -0.003764494
v -0.009785284 0.008939025 -0.00438874
v -0.005635494 0.003620922 -1.048824E-05
v -0.009697022 -0.001905029 -0.003463347
v -0.005407709 -0.00157368 0.000128176
v 0.0002476462 -0.001256159 0.003305742
v -9.278216E-05 0.003938033 0.003324325
v -5.230091E-06 0.009608986 0.002655809
v 0.006286846 -0.0009747866 0.006032493
v 0.005941444 0.004220144 0.006135986
v 0.006029687 0.009895789 0.005443218
v 0.0125261 -0.0007411077 0.00832711
v 0.01231541 0.01012802 0.007711294
v 0.01224747 0.004456055 0.00839072
vt 0.9178399 0.6569226
vt 1.119115 0.4602028
vt 1.111372 0.6676021
vt 0.9331763 0.4528336
vt 1.106918 0.274902
vt 0.9409581 0.2623295
vt 0.7483537 0.2500411
vt 0.7376188 0.4429968
vt 0.7639719 0.644545
vt 0.5051763 0.250823
vt 0.5045323 0.4443989
vt 0.5078297 0.6566192
vt 0.2761313 0.2599377
vt 0.2494961 0.6268402
vt 0.2806934 0.4458206
vn -0.5874967 0.09643345 0.8034602
vn -0.6612577 0.04983727 0.7485015
vn -0.6672071 0.08828127 0.7396223
vn -0.5820228 0.04771903 0.8117711
vn -0.6534754 0.007345968 0.7569121
vn -0.5750183 -0.005932575 0.818119
vn -0.4582565 -0.02801093 0.8883785
vn -0.4646173 0.04379932 0.8844277
vn -0.4674931 0.108816 0.8772738
vn -0.377222 -0.03681049 0.9253911
vn -0.3809198 0.04348119 0.9235851
vn -0.381123 0.1160957 0.917206
vn -0.3395216 -0.0355015 0.9399281
vn -0.3395679 0.1175211 0.9332108
vn -0.3405438 0.04469293 0.9391659
g M_Tear_R_0
f 3/3/3 2/2/2 1/1/1
f 2/2/2 4/4/4 1/1/1
f 2/2/2 5/5/5 4/4/4
f 5/5/5 6/6/6 4/4/4
f 4/4/4 6/6/6 7/7/7
f 1/1/1 4/4/4 8/8/8
f 8/8/8 4/4/4 7/7/7
f 9/9/9 1/1/1 8/8/8
f 8/8/8 7/7/7 10/10/10
f 9/9/9 8/8/8 11/11/11
f 11/11/11 8/8/8 10/10/10
f 12/12/12 9/9/9 11/11/11
f 11/11/11 10/10/10 13/13/13
f 14/14/14 12/12/12 11/11/11
f 15/15/15 11/11/11 13/13/13
f 15/15/15 14/14/14 11/11/11
